PathFileType	4	(X/Y/Z)	Walk8.trc
DataRate	CameraRate	NumFrames	NumMarkers	Units	OrigDataRate	OrigDataStartFrame	OrigNumFrames
200.000000	200.000000	4	59	mm	200.000000	393	515
Frame#	Times		RFHD		RACR1		RUA1		RFA1		RWRR		LACR1		LFA1		LWRU		RTH1		LTH4		CLAV		RWRU		LTH2		LFHD		LUA1		RBack		RCAR		LTH3		RElbow		T10		LASI		C7		LTH1		LLFC		LWRR		LTB2		STRN		LMT1		LTB4		LBHD		RTB1		RTH4		LMMAL		LTB1		LElbowM		LCAL		LCAR		RTH2		RPSI		LElbow		RBHD		LTB3		RTH3		LMT5		RLFC		RElbowM		RTB2		RTB4		LPSI		RMT1		RTB3		LLMAL		RASI		RCAL		RLMAL		RToe		LToe		RMMAL		RMT5
			X1	Y1	Z1	X2	Y2	Z2	X3	Y3	Z3	X4	Y4	Z4	X5	Y5	Z5	X6	Y6	Z6	X7	Y7	Z7	X8	Y8	Z8	X9	Y9	Z9	X10	Y10	Z10	X11	Y11	Z11	X12	Y12	Z12	X13	Y13	Z13	X14	Y14	Z14	X15	Y15	Z15	X16	Y16	Z16	X17	Y17	Z17	X18	Y18	Z18	X19	Y19	Z19	X20	Y20	Z20	X21	Y21	Z21	X22	Y22	Z22	X23	Y23	Z23	X24	Y24	Z24	X25	Y25	Z25	X26	Y26	Z26	X27	Y27	Z27	X28	Y28	Z28	X29	Y29	Z29	X30	Y30	Z30	X31	Y31	Z31	X32	Y32	Z32	X33	Y33	Z33	X34	Y34	Z34	X35	Y35	Z35	X36	Y36	Z36	X37	Y37	Z37	X38	Y38	Z38	X39	Y39	Z39	X40	Y40	Z40	X41	Y41	Z41	X42	Y42	Z42	X43	Y43	Z43	X44	Y44	Z44	X45	Y45	Z45	X46	Y46	Z46	X47	Y47	Z47	X48	Y48	Z48	X49	Y49	Z49	X50	Y50	Z50	X51	Y51	Z51	X52	Y52	Z52	X53	Y53	Z53	X54	Y54	Z54	X55	Y55	Z55	X56	Y56	Z56	X57	Y57	Z57	X58	Y58	Z58	X59	Y59	Z59

393	1.965	191.3	1423.4	64.544	102.29	1216.7	179.37	123.56	1076	259.72	210.75	844.28	298.38	242.65	748.76	263.25	95.458	1219.5	-188.79	146.37	846.14	-293.81	156.19	735.09	-306.23	101.06	641.23	206.66	133.62	577.3	-201	172.05	1189.5	-0.55853	209.19	743.24	327.19	180.07	599.35	-170.95	204.01	1435.6	-30.73	107.2	1053.2	-259.13	-16.346	1150.5	116.38	264.84	696	315.84	155.73	495.31	-179.14	133.48	950.16	293.54	-56.975	1072.5	6.5778	139.55	820.89	-167.1	30.761	1273.2	-0.76015	110.81	659.45	-216.09	191.7	400.91	-149.54	197.45	748.14	-259.91	80.971	250.82	-131.8	223.25	1083.5	4.89	80.941	37.685	-74.437	101.18	238.34	-74.687	76.375	1362.1	-66.622	143.88	286.1	73.593	103.83	557.36	184.16	-8.1846	145.91	-18.532	162.79	300.96	-83.922	42.226	912.23	-208.68	-80.307	159.68	-45.467	204.6	696.11	-303.73	161.41	566.6	168.92	-98.203	846.95	58.204	72.874	933.94	-275.3	60.152	1353.9	65.424	48.087	175.04	-68.071	111.52	475.59	154.29	-2.0015	66.238	-115.61	99.455	389.4	129.07	83.011	910.98	225.5	91.15	200.94	110.87	125.93	201.74	60.259	-107.92	842.68	-45.884	173.24	29.485	11.872	114.66	118.85	47.115	-42.064	147.88	-93.871	163.69	831.94	158.42	5.4334	32.561	32.047	61.158	58.582	79.739	227.83	32.353	47.507	45.48	52.902	-42.136	74.746	68.473	-2.8306	144.96	22.839	105.17
394	1.97	196.82	1423.9	64.758	108.01	1217.3	179.49	129.55	1076.7	259.92	217.63	845.22	298.1	249.91	750.01	262.71	100.73	1219.9	-188.6	149.91	845.98	-294.14	158.46	734.82	-306.82	105.22	641.18	206.93	140.38	578.39	-200.49	177.71	1190	-0.48085	216.63	744.1	326.66	186.77	600.94	-170.61	209.56	1436.1	-30.508	112.05	1053.8	-259.17	-10.588	1151	116.68	272.62	697.34	315.14	163.28	496.66	-178.42	139.91	950.82	293.78	-51.216	1072.9	7.0776	145.27	821.72	-167.07	36.399	1273.6	-0.53281	116.79	660.27	-215.69	200.21	402.63	-148.63	199.99	747.25	-260.56	93.261	249.85	-130.69	228.92	1084.1	4.5056	100.33	37.912	-73.106	113.79	238.01	-73.567	81.97	1362.5	-66.485	145.14	285.73	73.644	107.06	557.3	184.29	7.1047	142.61	-17.276	173.69	302.24	-82.877	46.752	912.98	-208.42	-65.563	153.83	-44.204	206.33	694.95	-304.37	164.78	565.98	169.19	-92.574	847.51	58.533	77.512	934.47	-274.98	65.703	1354.3	65.572	62.502	173.26	-66.83	113.85	475.52	154.29	16.19	63.245	-114.32	101.28	389.33	129.05	89.157	911.53	225.98	91.91	200.86	110.81	126.78	201.46	60.262	-102.32	843.54	-45.385	173.31	29.453	11.881	115.05	118.63	47.054	-26.824	143.4	-92.676	168.57	832.49	159.43	5.4991	32.681	32.039	61.251	58.587	79.671	227.98	32.214	47.629	64.265	51.969	-40.894	74.856	68.452	-2.8567	144.96	22.847	105.19
395	1.975	202.32	1424.3	64.935	113.74	1217.8	179.6	135.47	1077.4	260.15	224.48	846.13	297.84	257.16	751.24	262.19	106.03	1220.3	-188.42	153.53	845.83	-294.5	160.83	734.58	-307.49	109.49	641.12	207.16	147.08	579.41	-200.02	183.37	1190.5	-0.41977	224.03	744.93	326.13	193.41	602.44	-170.3	215.09	1436.6	-30.324	116.93	1054.2	-259.2	-4.8239	1151.4	116.99	280.38	698.66	314.45	170.74	497.93	-177.73	146.28	951.44	294.03	-45.463	1073.2	7.579	151.01	822.51	-167.03	42.035	1274	-0.33086	122.76	661.04	-215.32	208.52	404.27	-147.71	202.61	746.38	-261.27	105.6	248.79	-129.61	234.59	1084.8	4.1037	119.88	38.207	-71.897	126.44	237.62	-72.469	87.558	1362.9	-66.387	146.38	285.37	73.661	110.43	557.24	184.37	22.662	139.18	-16.078	184.49	303.49	-81.838	51.29	913.66	-208.22	-50.478	147.78	-42.965	208.15	693.82	-305.11	168.25	565.37	169.35	-86.923	848.05	58.901	82.203	934.96	-274.7	71.242	1354.6	65.682	77.087	171.41	-65.621	116.32	475.47	154.25	34.639	60.237	-113.11	103.11	389.26	129.01	95.284	912.05	226.45	92.69	200.79	110.75	127.62	201.19	60.24	-96.735	844.37	-44.861	173.38	29.42	11.889	115.43	118.43	46.976	-11.306	138.78	-91.525	173.51	832.98	160.4	5.5707	32.813	32.034	61.355	58.593	79.596	228.14	32.072	47.752	83.273	51.037	-39.757	74.971	68.435	-2.88	144.95	22.857	105.2
396	1.98	207.8	1424.7	65.077	119.47	1218.4	179.69	141.32	1078	260.39	231.29	847.01	297.6	264.39	752.45	261.67	111.35	1220.6	-188.26	157.23	845.68	-294.88	163.29	734.36	-308.24	113.88	641.05	207.35	153.75	580.37	-199.59	189.03	1190.9	-0.37399	231.4	745.72	325.61	199.99	603.84	-170.01	220.6	1437	-30.177	121.86	1054.6	-259.24	0.9474	1151.8	117.29	288.11	699.96	313.77	178.09	499.12	-177.06	152.6	952.02	294.28	-39.716	1073.5	8.0813	156.77	823.24	-166.95	47.669	1274.3	-0.15426	128.71	661.75	-214.98	216.65	405.82	-146.78	205.29	745.5	-262.06	117.97	247.65	-128.56	240.27	1085.3	3.6912	139.56	38.588	-70.837	139.14	237.17	-71.403	93.142	1363.2	-66.325	147.61	285.02	73.649	113.92	557.19	184.42	38.488	135.66	-14.952	195.2	304.69	-80.813	55.846	914.24	-208.08	-35.046	141.57	-41.758	210.06	692.73	-305.94	171.84	564.77	169.42	-81.251	848.54	59.299	86.945	935.38	-274.46	76.769	1354.8	65.755	91.833	169.5	-64.457	118.93	475.42	154.17	53.325	57.255	-112.02	104.93	389.2	128.96	101.4	912.52	226.91	93.489	200.73	110.68	128.46	200.93	60.198	-91.168	845.14	-44.319	173.46	29.384	11.895	115.82	118.25	46.884	4.4852	134.04	-90.428	178.53	833.38	161.31	5.6467	32.957	32.03	61.47	58.6	79.519	228.31	31.93	47.875	102.48	50.128	-38.75	75.096	68.42	-2.9011	144.95	22.867	105.21
